<svg style="fill: #f0bd23;" xmlns="http://www.w3.org/2000/svg" viewBox="0 0 47.667 52">
  <g transform="translate(-20)">
    <g transform="translate(20)">
      <g transform="translate(0)">
        <path d="M62.467,1.733h-2.6V.867a.867.867,0,0,0-1.733,0v.867H56.4V.867a.867.867,0,0,0-1.733,0v.867H52.933V.867a.867.867,0,0,0-1.733,0v.867H49.467V.867a.867.867,0,0,0-1.733,0v.867H35.6V.867a.867.867,0,0,0-1.733,0v.867H32.133V.867a.867.867,0,1,0-1.733,0v.867H28.667V.867a.867.867,0,1,0-1.733,0v.867H25.2V.867a.867.867,0,0,0-1.733,0v.867h-2.6A.867.867,0,0,0,20,2.6V43.333a.867.867,0,0,0,.867.867H46.043a.867.867,0,0,0,.869-.865c0-.021,0-.042,0-.063l-.007-.1c-.019-.234-.036-.468-.036-.705a11.217,11.217,0,0,1,.3-2.547,11.07,11.07,0,0,1,.859-2.4c.037-.076.071-.153.11-.229.115-.22.24-.433.369-.646.041-.067.081-.135.123-.2q.211-.33.444-.644c.032-.044.065-.087.1-.132q.26-.34.54-.659l.026-.029a11.42,11.42,0,0,1,4.534-3.086l.153-.056c.234-.082.471-.155.712-.223.108-.03.218-.058.328-.087.2-.05.406-.1.613-.136.173-.032.354-.056.531-.081.157-.023.312-.048.471-.062.347-.033.7-.054,1.056-.054.235,0,.466.018.693.034l.108.008h.022a11.32,11.32,0,0,1,3.2.715.867.867,0,0,0,1.181-.807V2.6A.867.867,0,0,0,62.467,1.733Zm-15.553,34.2c-.03.049-.062.1-.09.146-.125.219-.237.445-.347.673-.062.125-.124.249-.181.376-.094.209-.183.422-.266.637-.009.022-.018.042-.027.063V33.8h2.471A13.089,13.089,0,0,0,46.913,35.935ZM51.2,31.489c-.3.189-.586.39-.867.6v-.024H46v-5.2h5.2Zm0-6.356H46v-5.2h5.2Zm0-6.933H46V13h5.2Zm6.933,1.733v5.2h-5.2v-5.2Zm-5.2-1.733V13h5.2v5.2Zm5.2,11.267c-.406,0-.806.023-1.2.061-.173.016-.335.042-.5.064-.212.029-.424.058-.633.1s-.439.087-.655.14c-.133.032-.265.066-.4.1-.26.071-.52.148-.78.235l-.1.036c-.315.11-.627.225-.931.358V26.867h5.2Zm3.465.478a12.88,12.88,0,0,0-1.733-.36V12.133A.867.867,0,0,0,59,11.267H24.333a.867.867,0,0,0-.867.867V39.867a.867.867,0,0,0,.867.867H45.262a13,13,0,0,0-.129,1.733h-23.4V9.533H61.6ZM39.067,32.067v-5.2h5.2v5.2Zm5.2,1.733V39h-5.2V33.8Zm-5.2-8.667v-5.2h5.2v5.2Zm0-6.933V13h5.2v5.2ZM32.133,32.067v-5.2h5.2v5.2Zm5.2,1.733V39h-5.2V33.8Zm-5.2-8.667v-5.2h5.2v5.2Zm0-6.933V13h5.2v5.2ZM25.2,32.067v-5.2h5.2v5.2ZM30.4,33.8V39H25.2V33.8Zm-5.2-8.667v-5.2h5.2v5.2Zm0-6.933V13h5.2v5.2ZM61.6,7.8H21.733V3.467h1.733v.867a.867.867,0,1,0,1.733,0V3.467h1.733v.867a.867.867,0,1,0,1.733,0V3.467H30.4v.867a.867.867,0,1,0,1.733,0V3.467h1.733v.867a.867.867,0,0,0,1.733,0V3.467H47.733v.867a.867.867,0,0,0,1.733,0V3.467H51.2v.867a.867.867,0,1,0,1.733,0V3.467h1.733v.867a.867.867,0,0,0,1.733,0V3.467h1.733v.867a.867.867,0,1,0,1.733,0V3.467H61.6Z" transform="translate(-20)"/>
      </g>
    </g>
    <g transform="translate(48.6 32.933)">
      <g>
        <path d="M293.533,304a9.533,9.533,0,1,0,9.533,9.533A9.533,9.533,0,0,0,293.533,304Zm0,17.333a7.8,7.8,0,1,1,7.8-7.8A7.8,7.8,0,0,1,293.533,321.333Z" transform="translate(-284 -304)"/>
      </g>
    </g>
    <g transform="translate(54.677 37.277)">
      <g>
        <path d="M348.479,344.341a.867.867,0,0,0-1.2,0l-3.721,3.721-1.987-1.987a.867.867,0,0,0-1.225,1.225l2.6,2.6a.867.867,0,0,0,1.225,0l4.333-4.333A.867.867,0,0,0,348.479,344.341Z" transform="translate(-340.098 -344.098)"/>
      </g>
    </g>
  </g>
</svg>
