<svg style="fill: #f0bd23;" xmlns="http://www.w3.org/2000/svg" viewBox="0 0 53 42.4">
  <g transform="translate(0 -48)">
    <g transform="translate(14.134 67.433)">
      <g transform="translate(0 0)">
        <path d="M152.478,226.909l-2.65-2.65A.883.883,0,0,0,149.2,224H131.537a.883.883,0,0,0-.625.259l-2.65,2.65a.883.883,0,0,0-.2.927l3.533,9.717a.883.883,0,0,0,.829.581h15.9a.883.883,0,0,0,.829-.581l3.533-9.717A.883.883,0,0,0,152.478,226.909Zm-19.44,9.458-3.13-8.606,1.832-1.832,2.237,10.438Zm2.745,0-2.271-10.6h2.5l.757,10.6Zm3.7,0h-.944l-.757-10.6h1.7Zm2.711,0h-.944v-10.6h1.7Zm1.771,0,.757-10.6h2.5l-2.271,10.6Zm3.733,0h-.939L149,225.928l1.832,1.832Z" transform="translate(-128.004 -224)"/>
      </g>
    </g>
    <g transform="translate(3.533 75.383)">
      <g transform="translate(0 0)">
        <path d="M44.3,300.972l-1.767-4.417a.883.883,0,0,0-.821-.556H32.883a.883.883,0,0,0-.883.883V301.3a.883.883,0,0,0,.883.883h10.6a.883.883,0,0,0,.821-1.211Zm-10.537-.556v-2.65h7.352l1.06,2.65Z" transform="translate(-32 -296)"/>
      </g>
    </g>
    <g transform="translate(37.099 75.383)">
      <g transform="translate(0 0)">
        <path d="M347.479,296h-8.833a.883.883,0,0,0-.821.556l-1.767,4.417a.883.883,0,0,0,.821,1.211h10.6a.883.883,0,0,0,.883-.883v-4.417A.883.883,0,0,0,347.479,296Zm-.883,4.417h-8.412l1.06-2.65H346.6Z" transform="translate(-335.995 -296)"/>
      </g>
    </g>
    <g transform="translate(39.749 67.433)">
      <g transform="translate(0 0)">
        <path d="M368.829,224h-3.791a4.394,4.394,0,0,0-4.1,2.777l-.878,2.2a.883.883,0,0,0,.821,1.211h6.183a2.65,2.65,0,0,0,2.65-2.65v-2.65A.883.883,0,0,0,368.829,224Zm-.883,3.533a.883.883,0,0,1-.883.883h-4.879l.394-.984a2.637,2.637,0,0,1,2.46-1.666h2.908Z" transform="translate(-359.995 -224)"/>
      </g>
    </g>
    <g transform="translate(3.533 67.433)">
      <g transform="translate(0 0)">
        <path d="M41.654,228.972l-.878-2.2a4.394,4.394,0,0,0-4.1-2.777H32.883a.883.883,0,0,0-.883.883v2.65a2.65,2.65,0,0,0,2.65,2.65h6.183a.883.883,0,0,0,.821-1.211Zm-7-.556a.883.883,0,0,1-.883-.883v-1.767h2.908a2.637,2.637,0,0,1,2.46,1.666l.394.984Z" transform="translate(-32 -224)"/>
      </g>
    </g>
    <g transform="translate(9.716 51.533)">
      <g>
        <path d="M121.5,89.389l-3.533-8.833a.883.883,0,0,0-.821-.556H92.412a.883.883,0,0,0-.821.556l-3.533,8.833a.883.883,0,0,0,.821,1.211h31.8a.883.883,0,0,0,.821-1.211Zm-31.316-.556,2.827-7.067h23.537l2.827,7.067Z" transform="translate(-87.995 -80)"/>
      </g>
    </g>
    <g transform="translate(0 48)">
      <g transform="translate(0)">
        <path d="M48.066,61.25H50.35a2.65,2.65,0,1,0,0-5.3H48.583a2.645,2.645,0,0,0-2.51,1.838l-4.162-8.324A2.637,2.637,0,0,0,39.541,48H12.647a2.65,2.65,0,0,0-2.434,1.606l-3.388,7.9A2.65,2.65,0,0,0,4.417,55.95H2.65a2.65,2.65,0,1,0,0,5.3H4.933L.776,65.408A2.63,2.63,0,0,0,0,67.281v13.4a4.425,4.425,0,0,0,3.533,4.328V87.75a2.65,2.65,0,0,0,2.65,2.65H9.717a2.65,2.65,0,0,0,2.65-2.65V85.1H40.633v2.65a2.65,2.65,0,0,0,2.65,2.65h3.533a2.65,2.65,0,0,0,2.65-2.65V85.012A4.425,4.425,0,0,0,53,80.683v-13.4a2.634,2.634,0,0,0-.776-1.874ZM47.7,58.6a.883.883,0,0,1,.883-.883H50.35a.883.883,0,0,1,0,1.767H47.7Zm-45.05.883a.883.883,0,0,1,0-1.767H4.417A.883.883,0,0,1,5.3,58.6v.883ZM10.6,87.75a.883.883,0,0,1-.883.883H6.183A.883.883,0,0,1,5.3,87.75V85.1h5.3Zm37.1,0a.883.883,0,0,1-.883.883H43.283a.883.883,0,0,1-.883-.883V85.1h5.3Zm3.533-7.067a2.65,2.65,0,0,1-2.65,2.65H4.417a2.65,2.65,0,0,1-2.65-2.65v-13.4a.883.883,0,0,1,.259-.625l4.9-4.9L11.837,50.3a.883.883,0,0,1,.811-.535H39.541a.877.877,0,0,1,.79.488L46.09,61.774l4.884,4.883a.883.883,0,0,1,.259.625Z" transform="translate(0 -48)"/>
      </g>
    </g>
  </g>
</svg>
