<svg style="fill: #f0bd23;" xmlns="http://www.w3.org/2000/svg" viewBox="0 0 52 52">
  <g>
    <g>
      <path d="M3.467,43.333V40.2l7.921-8.719a2.548,2.548,0,0,0,3.345-.078L20.861,36A2.6,2.6,0,0,0,26,35.533a2.17,2.17,0,0,0-.052-.477l6.795-7.549a2.722,2.722,0,0,0,1.057.225,2.6,2.6,0,0,0,1.673-.624l6.353,5.642A2.644,2.644,0,0,0,41.6,33.8a2.632,2.632,0,1,0,1.421-2.305L36.4,25.575a2.552,2.552,0,0,0,0-.442,2.6,2.6,0,0,0-5.2,0,2.548,2.548,0,0,0,.295,1.17l-6.483,7.2a2.575,2.575,0,0,0-3.787.615L15.6,29.865a2.009,2.009,0,0,0,0-.4,2.6,2.6,0,1,0-5.2,0,2.17,2.17,0,0,0,.052.477L3.467,37.622V28.089l8.363-7.6A2.652,2.652,0,0,0,13,20.8a2.6,2.6,0,0,0,2.6-2.6,2.25,2.25,0,0,0-.052-.485L22.091,10.4a2.552,2.552,0,0,0,.442,0,2.6,2.6,0,0,0,1.855-.78l6.933,2.305A2.6,2.6,0,0,0,36.4,10.9l6.067-3.8A2.6,2.6,0,1,0,41.6,5.2a2.617,2.617,0,0,0,0,.364l-6.067,3.8a2.6,2.6,0,0,0-4.1.789l-6.3-2.115a2.162,2.162,0,0,0,0-.234,2.6,2.6,0,1,0-4.576,1.673l-5.954,6.7A2.548,2.548,0,0,0,13,15.6a2.6,2.6,0,0,0-2.6,2.6,2.523,2.523,0,0,0,.234,1.057L3.467,25.775V0H1.733V1.733H0V3.467H1.733v8.667H0v1.733H1.733v8.667H0v1.733H1.733v8.667H0v1.733H1.733V44.2a.867.867,0,0,0,.867.867h9.533V46.8h1.733V45.067h8.667V46.8h1.733V45.067h8.667V46.8h1.733V45.067h8.667V46.8h1.733V45.067H52V43.333ZM44.2,32.933a.867.867,0,1,1-.867.867A.867.867,0,0,1,44.2,32.933ZM33.8,24.267a.867.867,0,1,1-.867.867A.867.867,0,0,1,33.8,24.267Zm-10.4,10.4a.867.867,0,1,1-.867.867A.867.867,0,0,1,23.4,34.667ZM13,28.6a.867.867,0,1,1-.867.867A.867.867,0,0,1,13,28.6ZM44.2,4.333a.867.867,0,1,1-.867.867A.867.867,0,0,1,44.2,4.333ZM33.8,10.4a.867.867,0,1,1-.867.867A.867.867,0,0,1,33.8,10.4ZM22.533,6.933a.867.867,0,1,1-.867.867A.867.867,0,0,1,22.533,6.933ZM13,17.333a.867.867,0,1,1-.867.867A.867.867,0,0,1,13,17.333Z"/>
    </g>
  </g>
  <g transform="translate(16.467 50.267)">
    <g>
      <rect width="1.733" height="1.733"/>
    </g>
  </g>
  <g transform="translate(19.933 50.267)">
    <g>
      <rect width="1.733" height="1.733"/>
    </g>
  </g>
  <g transform="translate(23.4 50.267)">
    <g>
      <rect width="1.733" height="1.733"/>
    </g>
  </g>
  <g transform="translate(26.867 50.267)">
    <g>
      <rect width="1.733" height="1.733"/>
    </g>
  </g>
  <g transform="translate(30.333 50.267)">
    <g>
      <rect width="1.733" height="1.733"/>
    </g>
  </g>
  <g transform="translate(33.8 50.267)">
    <g>
      <rect width="1.733" height="1.733"/>
    </g>
  </g>
</svg>
