<svg xmlns="http://www.w3.org/2000/svg" viewBox="0 0 49.996 50">
  <defs>
    <style>
      .cls-1 {
        fill: #f0bd23;
      }
    </style>
  </defs>
  <g id="contract" transform="translate(-0.018)">
    <g id="Group_109" data-name="Group 109" transform="translate(0.018)">
      <g id="Group_108" data-name="Group 108">
        <path id="Path_168" data-name="Path 168" class="cls-1" d="M48.726,15.735a4.4,4.4,0,0,0-6.215,0L38.1,20.146V8.538A4.365,4.365,0,0,0,36.817,5.43L32.674,1.287A4.365,4.365,0,0,0,29.566,0H4.413A4.4,4.4,0,0,0,.018,4.395V45.605A4.4,4.4,0,0,0,4.413,50h29.3A4.4,4.4,0,0,0,38.1,45.605V32.581L48.726,21.95A4.392,4.392,0,0,0,48.726,15.735ZM29.315,2.93a1.6,1.6,0,0,1,1.287.429L34.745,7.5a1.6,1.6,0,0,1,.429,1.287H29.315Zm5.859,42.676a1.466,1.466,0,0,1-1.465,1.465H4.413a1.467,1.467,0,0,1-1.465-1.465V4.395A1.467,1.467,0,0,1,4.413,2.93H26.385v7.324a1.465,1.465,0,0,0,1.465,1.465h7.324v11.36L30.852,27.4l-2.071,2.071a1.465,1.465,0,0,0-.354.573l-2.072,6.215a1.465,1.465,0,0,0,1.853,1.853l6.215-2.072A1.464,1.464,0,0,0,35,35.689l.178-.178V45.605Zm-3.285-15.1,2.072,2.072-.791.791-3.107,1.036L31.1,31.3Zm4.143,0L33.96,28.438,41,21.391l2.072,2.072ZM46.654,19.879l-1.51,1.511-2.072-2.072,1.511-1.512a1.465,1.465,0,1,1,2.071,2.072Z" transform="translate(-0.018)"/>
      </g>
    </g>
    <g id="Group_111" data-name="Group 111" transform="translate(5.877 14.648)">
      <g id="Group_110" data-name="Group 110">
        <path id="Path_169" data-name="Path 169" class="cls-1" d="M81.991,150H61.483a1.465,1.465,0,0,0,0,2.93H81.991a1.465,1.465,0,0,0,0-2.93Z" transform="translate(-60.018 -150)"/>
      </g>
    </g>
    <g id="Group_113" data-name="Group 113" transform="translate(5.877 20.508)">
      <g id="Group_112" data-name="Group 112">
        <path id="Path_170" data-name="Path 170" class="cls-1" d="M76.131,210H61.483a1.465,1.465,0,0,0,0,2.93H76.131a1.465,1.465,0,0,0,0-2.93Z" transform="translate(-60.018 -210)"/>
      </g>
    </g>
    <g id="Group_115" data-name="Group 115" transform="translate(5.877 26.367)">
      <g id="Group_114" data-name="Group 114">
        <path id="Path_171" data-name="Path 171" class="cls-1" d="M76.131,270H61.483a1.465,1.465,0,0,0,0,2.93H76.131a1.465,1.465,0,0,0,0-2.93Z" transform="translate(-60.018 -270)"/>
      </g>
    </g>
    <g id="Group_117" data-name="Group 117" transform="translate(5.877 32.227)">
      <g id="Group_116" data-name="Group 116">
        <path id="Path_172" data-name="Path 172" class="cls-1" d="M76.131,330H61.483a1.465,1.465,0,0,0,0,2.93H76.131a1.465,1.465,0,0,0,0-2.93Z" transform="translate(-60.018 -330)"/>
      </g>
    </g>
    <g id="Group_119" data-name="Group 119" transform="translate(17.596 41.211)">
      <g id="Group_118" data-name="Group 118">
        <path id="Path_173" data-name="Path 173" class="cls-1" d="M190.272,422h-8.789a1.465,1.465,0,1,0,0,2.93h8.789a1.465,1.465,0,0,0,0-2.93Z" transform="translate(-180.018 -422)"/>
      </g>
    </g>
  </g>
</svg>
