<svg style="fill: #f0bd23;" xmlns="http://www.w3.org/2000/svg" viewBox="0 0 51.63 55">
  <g transform="translate(-15.687)">
    <g transform="translate(15.687)">
      <g>
        <path d="M66.243,20.747H49.891V19.321a4.9,4.9,0,0,0-2.523-4.277A12.489,12.489,0,0,0,45.083,5.3c-2.116-2.7-4.647-3.824-6.9-3.121A11.219,11.219,0,0,0,31.159,0C23,0,18.129,6.239,18.129,12.272a21.831,21.831,0,0,0,.177,2.767,4.9,4.9,0,0,0-2.533,4.283v1.94a4.894,4.894,0,0,0,4.889,4.889h1.531a11.7,11.7,0,0,0,5.7,5.781l0,1.028H26.241a2.249,2.249,0,0,0-1.979,1.153,2.359,2.359,0,0,0-.117.239H20.858a5.177,5.177,0,0,0-5.171,5.171v14.4A1.074,1.074,0,0,0,16.761,55H48.9a1.074,1.074,0,0,0,1.074-1.074V45.267l6.15-4.888H66.243A1.074,1.074,0,0,0,67.317,39.3V21.821A1.074,1.074,0,0,0,66.243,20.747ZM45.436,16.613c.059.01.118.022.177.035l.039.009c.06.015.119.031.178.05a2.75,2.75,0,0,1,1.912,2.614v1.425H44.5V16.578H45c.064,0,.127,0,.19.008l.045,0c.063.005.125.012.188.022ZM21.168,24h-.506a2.743,2.743,0,0,1-2.74-2.74v-1.94a2.75,2.75,0,0,1,1.9-2.611c.063-.02.127-.038.191-.054l.023-.005a2.746,2.746,0,0,1,.389-.062l.04,0c.064,0,.128-.008.193-.008h.506Zm.76-9.572H20.66q-.13,0-.258.007H20.4a19.683,19.683,0,0,1-.12-2.165c0-4.976,4.07-10.123,10.881-10.123A8.791,8.791,0,0,1,37.3,4.226a1.074,1.074,0,0,0,1.168.149c1.431-.7,3.273.146,4.928,2.254a10.4,10.4,0,0,1,1.888,7.809h-.012q-.132-.007-.266-.008H43.422c-.036,0-.071,0-.106.005l-.034,0c-.023,0-.046.006-.069.011l-.039.009-.06.016-.04.014-.056.02-.04.018-.052.025-.038.021-.049.03-.036.024-.046.034-.033.027-.042.039-.03.03-.039.043-.027.032c-.012.015-.024.031-.036.048l-.023.033c-.011.017-.022.035-.032.053L42.474,15c-.011.02-.02.04-.029.061s-.01.02-.014.03c-.011.027-.021.054-.03.082l0,.013q-.015.049-.026.1c0,.011,0,.021-.005.032s-.008.042-.01.064l-.024-.022q-.165-.151-.333-.3a10.529,10.529,0,0,0-2.324-1.371c-1.1-.534-2.46-1.2-2.742-1.931a1.074,1.074,0,0,0-1.816-.317,8.626,8.626,0,0,1-7.018,3.05c-.107,0-.212,0-.317.006l-.1,0c-.072,0-.144.007-.216.012l-.112.009-.206.02-.105.012q-.119.015-.237.033l-.066.01q-.149.024-.3.053l-.077.017c-.072.015-.144.031-.216.048l-.1.026-.19.051-.1.029c-.067.02-.132.041-.2.063l-.082.027q-.138.047-.273.1l-.037.015q-.116.046-.231.1l-.087.039-.177.083-.093.046c-.058.029-.115.06-.172.09l-.084.046q-.107.06-.212.124l-.036.021-.033.021v-.3A8.784,8.784,0,0,1,38.476,8.554a1.074,1.074,0,0,0,1.382-1.645,10.933,10.933,0,0,0-17.93,7.521ZM34.745,38.76l2.226-3.653h2.454a.116.116,0,0,1,.11.064.12.12,0,0,1,.017.079v0a.129.129,0,0,1-.018.047L37.457,38.76H34.745Zm4.679-5.8H37.779l0-1.028a11.649,11.649,0,0,0,4.572-3.822v6.242H41.52a2.361,2.361,0,0,0-.117-.239A2.249,2.249,0,0,0,39.424,32.959ZM23.317,21.367V19.443l.043-.079c.031-.055.063-.109.1-.162s.073-.12.111-.178.067-.1.1-.151.078-.112.119-.166.071-.095.108-.141.084-.1.127-.154.075-.088.114-.13.089-.1.134-.142.079-.081.12-.119.095-.088.143-.13.083-.073.126-.109.1-.08.151-.119.087-.066.132-.1.105-.072.159-.107.091-.059.137-.087.111-.064.168-.095.094-.052.143-.077.117-.056.177-.083.1-.045.147-.066.124-.048.186-.071.1-.038.151-.055.131-.04.2-.059.1-.031.154-.044c.069-.018.14-.032.21-.047.052-.011.1-.024.155-.033.075-.014.151-.024.227-.035.05-.007.1-.016.151-.022.086-.01.173-.017.261-.023.044,0,.087-.009.131-.011q.2-.011.4-.012a10.846,10.846,0,0,0,7.709-2.825,11.342,11.342,0,0,0,2.925,1.806l.27.132.223.11.176.088.244.126.032.017c.159.085.309.169.446.253l0,0c.047.029.091.057.134.086a2.828,2.828,0,0,1,.314.234h0q.133.117.262.236l.088.081.168.157.1.1.15.145.1.1.146.145.1.1.151.156.082.086q.1.105.2.21l.03.032c.068.075.135.15.2.225v2.172a5.289,5.289,0,0,1-4.06,5.159l-.062.017-1.806.551a2.754,2.754,0,0,0-2.55-1.723H32.011a2.75,2.75,0,0,0,0,5.5h1.859a2.752,2.752,0,0,0,2.448-1.5l2.506-.764a7.513,7.513,0,0,0,1.434-.511,9.525,9.525,0,0,1-3.95,2.891,1.074,1.074,0,0,0-.682,1l.007,2.021,0,0c-.022.021-.043.044-.063.068s-.022.023-.033.036a1.066,1.066,0,0,0-.082.116l-2.617,4.3-2.617-4.3a1.066,1.066,0,0,0-.082-.116c-.01-.013-.022-.024-.033-.036s-.041-.047-.063-.068l0,0,.007-2.021a1.074,1.074,0,0,0-.682-1A9.463,9.463,0,0,1,23.317,21.367Zm11.154,5.992a.6.6,0,0,1-.6.6H32.011a.6.6,0,0,1,0-1.2h1.859A.6.6,0,0,1,34.471,27.359Zm-8.34,7.813a.116.116,0,0,1,.11-.064h2.454L30.92,38.76H28.207L26.132,35.3a.131.131,0,0,1-.018-.047v0A.12.12,0,0,1,26.131,35.171Zm-8.3,17.68V39.522A3.026,3.026,0,0,1,20.858,36.5h3.49l2.329,3.887a1.074,1.074,0,0,0,.921.522H29.63l-1.372,9.155a1.074,1.074,0,0,0,.295.911l1.837,1.877Zm15.008-.563-2.383-2.434L31.8,40.909h2.07l1.433,8.94Zm14.985.563h-12.5l1.882-1.865a1.074,1.074,0,0,0,.3-.933l-1.465-9.145h2.019a1.074,1.074,0,0,0,.921-.522L41.317,36.5h1.031V39.3a1.074,1.074,0,0,0,1.074,1.074h4.407ZM65.168,38.231H55.752a1.074,1.074,0,0,0-.668.233l-5.107,4.059V39.3A1.074,1.074,0,0,0,48.9,38.23H44.5V22.895H65.168Z" transform="translate(-15.687)"/>
      </g>
    </g>
    <g transform="translate(60.35 26.143)">
      <g>
        <path d="M433.587,244.229a1.086,1.086,0,0,0-.061-.2,1.143,1.143,0,0,0-.1-.186,1.072,1.072,0,0,0-.133-.163,1.036,1.036,0,0,0-.163-.133,1.063,1.063,0,0,0-.186-.1,1.086,1.086,0,0,0-.2-.061,1.062,1.062,0,0,0-.42,0,1.136,1.136,0,0,0-.2.061,1.091,1.091,0,0,0-.185.1,1.026,1.026,0,0,0-.163.133,1.06,1.06,0,0,0-.233.349,1.093,1.093,0,0,0-.061.2,1.1,1.1,0,0,0,0,.42,1.092,1.092,0,0,0,.061.2,1.059,1.059,0,0,0,.233.349,1.091,1.091,0,0,0,.348.232,1.138,1.138,0,0,0,.2.061,1.078,1.078,0,0,0,.211.021,1.06,1.06,0,0,0,.209-.021,1.086,1.086,0,0,0,.2-.061,1.063,1.063,0,0,0,.186-.1,1.1,1.1,0,0,0,.163-.133,1.126,1.126,0,0,0,.133-.163,1.143,1.143,0,0,0,.1-.186,1.085,1.085,0,0,0,.061-.2,1.037,1.037,0,0,0,0-.42Z" transform="translate(-431.46 -243.365)"/>
      </g>
    </g>
    <g transform="translate(47.174 26.143)">
      <g>
        <path d="M319.3,243.365h-9.416a1.074,1.074,0,0,0,0,2.148H319.3a1.074,1.074,0,0,0,0-2.148Z" transform="translate(-308.805 -243.365)"/>
      </g>
    </g>
    <g transform="translate(47.175 31.458)">
      <g>
        <path d="M310.938,293.709a1.085,1.085,0,0,0-.061-.2,1.065,1.065,0,0,0-.1-.186,1.026,1.026,0,0,0-.133-.163,1.133,1.133,0,0,0-.163-.133,1.145,1.145,0,0,0-.186-.1,1.008,1.008,0,0,0-.2-.061,1.062,1.062,0,0,0-.42,0,1.008,1.008,0,0,0-.2.061,1.081,1.081,0,0,0-.349.232,1.021,1.021,0,0,0-.133.163,1.059,1.059,0,0,0-.1.186,1.084,1.084,0,0,0-.061.2,1.085,1.085,0,0,0,0,.419,1.086,1.086,0,0,0,.061.2,1.062,1.062,0,0,0,.1.186,1.023,1.023,0,0,0,.133.163,1.132,1.132,0,0,0,.163.133,1.145,1.145,0,0,0,.186.1,1.011,1.011,0,0,0,.2.061,1.037,1.037,0,0,0,.42,0,1,1,0,0,0,.2-.061,1.141,1.141,0,0,0,.186-.1,1.124,1.124,0,0,0,.163-.133,1.029,1.029,0,0,0,.133-.163,1.067,1.067,0,0,0,.1-.186,1.086,1.086,0,0,0,.061-.2,1.032,1.032,0,0,0,0-.419Z" transform="translate(-308.811 -292.845)"/>
      </g>
    </g>
    <g transform="translate(50.934 31.457)">
      <g>
        <path d="M354.3,292.839H344.88a1.074,1.074,0,0,0,0,2.148H354.3a1.074,1.074,0,0,0,0-2.148Z" transform="translate(-343.806 -292.839)"/>
      </g>
    </g>
    <g transform="translate(40.552 9.748)">
      <g>
        <path d="M248.992,91.059a1.1,1.1,0,0,0-.163-.134,1.053,1.053,0,0,0-.186-.1,1.006,1.006,0,0,0-.2-.061,1.07,1.07,0,0,0-.621.061,1.085,1.085,0,0,0-.185.1,1.1,1.1,0,0,0-.163.134,1.082,1.082,0,0,0-.315.759,1.056,1.056,0,0,0,.02.209,1.1,1.1,0,0,0,.061.2,1.061,1.061,0,0,0,.1.186,1.1,1.1,0,0,0,.134.163,1.027,1.027,0,0,0,.163.133,1.09,1.09,0,0,0,.185.1,1.053,1.053,0,0,0,.2.061,1.077,1.077,0,0,0,.211.021,1.058,1.058,0,0,0,.209-.021,1,1,0,0,0,.2-.061,1.065,1.065,0,0,0,.186-.1,1.045,1.045,0,0,0,.3-.3,1.061,1.061,0,0,0,.1-.186,1.077,1.077,0,0,0,.061-.2,1.06,1.06,0,0,0,.021-.209A1.082,1.082,0,0,0,248.992,91.059Z" transform="translate(-247.158 -90.745)"/>
      </g>
    </g>
  </g>
</svg>
