<svg style="fill: #F0BD23;" id="customer-support" xmlns="http://www.w3.org/2000/svg" viewBox="0 0 60 60">
  <g>
    <path d="M57,11H41.473A13.986,13.986,0,0,0,30,5V3a3,3,0,0,0-3-3H3A3,3,0,0,0,0,3V15a3,3,0,0,0,3,3H5.2l3.033,3.641a1,1,0,0,0,1.537,0L12.8,18h3.249c-.024.332-.051.662-.051,1v2a.924.924,0,0,0,1.122.981,15.912,15.912,0,0,0,2.589,6.994A4,4,0,0,1,16.127,26H17V24H15a1,1,0,0,0-1,1,6.007,6.007,0,0,0,6,6h1.3a15.887,15.887,0,0,0,1.434,1.371c.085.071.176.132.263.2V36.28l-8.316,2.772A1,1,0,0,0,14,39.9l-2,19a1,1,0,0,0,.891,1.1A.976.976,0,0,0,13,60H47a1,1,0,0,0,1-1c0-.033,0-.066-.005-.1l-2-19a1,1,0,0,0-.678-.844L37,36.28V32.571c.087-.068.177-.129.263-.2A15.9,15.9,0,0,0,42.225,25H43.2l3.033,3.641a1,1,0,0,0,1.537,0L50.8,25H57a3,3,0,0,0,3-3V14A3,3,0,0,0,57,11ZM16.332,16h-4a1,1,0,0,0-.769.359L9,19.438,6.436,16.359A1,1,0,0,0,5.667,16H3a1,1,0,0,1-1-1V3A1,1,0,0,1,3,2H27a1,1,0,0,1,1,1V5.16A14.02,14.02,0,0,0,16.332,16ZM23,58H14.11l1.817-17.255L23,38.388Zm2,0V44.721l3.544-1.181-2.509,9.2a1,1,0,0,0,.07.71L28.382,58Zm0-15.388V40.618l2.393,1.2ZM28.065,52.9,30,45.8l1.933,7.1L30,56.764ZM35,58H31.618l2.276-4.553a1,1,0,0,0,.07-.71l-2.509-9.2L35,44.721Zm0-15.388-2.393-.8L35,40.618ZM35,37v1.382l-5,2.5-5-2.5V33.83a11.262,11.262,0,0,0,10,0Zm9.073,3.745L45.89,58H37V38.388Zm-8.092-9.911A9.335,9.335,0,0,1,24.237,31H29V29H22.215a13.908,13.908,0,0,1-3.169-8.18,41.019,41.019,0,0,1,13.062-5.594A7.012,7.012,0,0,0,39,21h1.952A13.886,13.886,0,0,1,35.981,30.834ZM39,19a5.006,5.006,0,0,1-5-5,1,1,0,0,0-1.217-.977l-.6.134A43.019,43.019,0,0,0,18,19.107V19a12,12,0,0,1,24,0Zm19,3a1,1,0,0,1-1,1H50.333a1,1,0,0,0-.769.359L47,26.438,44.436,23.36a1,1,0,0,0-.769-.36h-.949a15.976,15.976,0,0,0,.234-2H43a1,1,0,0,0,1-1V19a13.891,13.891,0,0,0-1.37-6H57a1,1,0,0,1,1,1Z"/>
  </g>
</svg>
