<svg style="fill: #F0BD23;" xmlns="http://www.w3.org/2000/svg" viewBox="0 0 60 43.875">
  <g transform="translate(0 -58.252)">
    <path d="M141.927,145.093H140.3v-3.681a7.006,7.006,0,0,0-14.012,0v3.681h-1.628a1.038,1.038,0,0,0-1.038,1.038v15.3a1.038,1.038,0,0,0,1.038,1.038h17.268a1.038,1.038,0,0,0,1.038-1.038v-15.3A1.038,1.038,0,0,0,141.927,145.093Zm-13.564-3.681a4.93,4.93,0,1,1,9.859,0v3.681h-9.859ZM140.889,160.4H125.7V147.169h15.191Z" transform="translate(-106.511 -65.614)"/>
    <path d="M172.563,245.427v2.522a1.038,1.038,0,0,0,2.076,0v-2.522a3.2,3.2,0,1,0-2.076,0Zm1.038-4.143a1.121,1.121,0,1,1-1.12,1.121A1.122,1.122,0,0,1,173.6,241.284Z" transform="translate(-146.82 -155.91)"/>
    <path d="M59.387,70.686A2.832,2.832,0,0,0,57.151,69.6H53.564V65.869a2.637,2.637,0,0,0-2.634-2.634H25.863a.41.41,0,0,1-.385-.271L24.4,59.948a2.562,2.562,0,0,0-2.408-1.7H9.426a2.563,2.563,0,0,0-2.408,1.7L5.941,62.964a.41.41,0,0,1-.385.271H2.634A2.637,2.637,0,0,0,0,65.869V99.493a2.637,2.637,0,0,0,2.634,2.634h48.3a2.635,2.635,0,0,0,2.626-2.479L59.92,73.114A2.832,2.832,0,0,0,59.387,70.686Zm-7.9,28.807a.559.559,0,0,1-.558.558H2.634a.559.559,0,0,1-.558-.558V65.869a.559.559,0,0,1,.558-.558H5.556A2.49,2.49,0,0,0,7.9,63.662l1.078-3.015a.482.482,0,0,1,.453-.319H21.993a.482.482,0,0,1,.453.319l1.077,3.015h0a2.49,2.49,0,0,0,2.34,1.649H50.93a.559.559,0,0,1,.558.558V99.493ZM57.9,72.63,53.564,90.714V71.677h3.587a.772.772,0,0,1,.751.952Z" transform="translate(0 0)"/>
  </g>
</svg>
