<svg style="fill: #f0bd23;" id="pulse" xmlns="http://www.w3.org/2000/svg" viewBox="0 0 50 50">
  <g>
    <g>
      <path d="M45.313,0H4.688A4.687,4.687,0,0,0,0,4.688V32.813A4.687,4.687,0,0,0,4.688,37.5H18.75v9.375H12.5V50h25V46.875H31.25V37.5H45.313A4.687,4.687,0,0,0,50,32.813V4.688A4.687,4.687,0,0,0,45.313,0ZM28.125,46.875h-6.25V37.5h6.25Zm18.75-14.062a1.562,1.562,0,0,1-1.562,1.563H4.688a1.562,1.562,0,0,1-1.563-1.562V4.688A1.562,1.562,0,0,1,4.688,3.125H45.313a1.562,1.562,0,0,1,1.563,1.563Z"/>
      <rect width="3.125" height="3.125" transform="translate(6.25 15.625)"/>
      <rect width="3.125" height="3.125" transform="translate(40.625 15.625)"/>
      <path d="M146.539,103.93l-5.957-13.4-3.4,6.8L134.492,93.3l-4.014,4.016H128v3.125h3.772l2.235-2.234,3.561,5.341,2.85-5.7,6.543,14.724L151,100.438h2V97.313h-4.26Z" transform="translate(-115.5 -81.687)"/>
    </g>
  </g>
</svg>
