<svg style="fill: #F0BD23;" data-name="research" xmlns="http://www.w3.org/2000/svg" viewBox="0 0 60 60">
  <g>
    <g>
      <path d="M59.992,54.962a.99.99,0,0,0-.069-.343c-.006-.015-.017-.027-.024-.041a.984.984,0,0,0-.11-.192L54.65,47.773l.6-.671a2,2,0,0,0-.166-2.823L53,42.43V17a3,3,0,0,0-3-3H48V3a3,3,0,0,0-3-3H15a3,3,0,0,0-3,3V14H10a3,3,0,0,0-3,3V45.657L.21,54.386a.983.983,0,0,0-.111.193c-.007.014-.017.025-.023.04a.989.989,0,0,0-.069.343c0,.013-.008.024-.008.037v2a3,3,0,0,0,3,3H57a3,3,0,0,0,3-3V55C60,54.987,59.993,54.976,59.992,54.962ZM48,16h2a1,1,0,0,1,1,1V40.652l-3-2.667V16Zm3.293,27.587h0l2.459,2.186h0l-1.328,1.5L39.8,36.048l.663-.747h0l.664-.747ZM14,3a1,1,0,0,1,1-1H45a1,1,0,0,1,1,1V36.208l-3.543-3.149a2,2,0,0,0-2.824.166L38.1,31.863A10.008,10.008,0,1,0,23,33.125V37H21V35a1,1,0,0,0-2,0v2H18a1,1,0,1,0,0,2H40a.908.908,0,0,0,.089-.018L42.359,41H14V3ZM38.047,37H33V35.531a9.9,9.9,0,0,0,3.773-2.173L38.3,34.72A1.978,1.978,0,0,0,38.047,37ZM31,22V33.929c-.176.022-.351.047-.53.057A8.086,8.086,0,0,1,29,33.934V24a1,1,0,1,0-2,0v9.41a7.962,7.962,0,0,1-2-1.178V28a1,1,0,0,0-2,0v1.862a8,8,0,0,1,6.53-11.848q.241-.014.48-.014A8,8,0,0,1,33,33.412V22a1,1,0,0,0-2,0Zm0,13.938V37H29V35.949c.326.032.655.051.987.051.2,0,.4-.006.6-.018C30.727,35.974,30.862,35.952,31,35.938Zm-4-.4V37H25V34.656A9.879,9.879,0,0,0,27,35.535ZM9,17a1,1,0,0,1,1-1h2V41H11a1,1,0,1,0,0,2H44.61l2.25,2H9ZM8.489,47H49.11l1.985,1.764a1.977,1.977,0,0,0,2.07.356L56.957,54H3.044ZM58,57a1,1,0,0,1-1,1H3a1,1,0,0,1-1-1V56H58v1Z"/>
      <path d="M143.934,426.667h-32a1,1,0,0,0,0,2h32a1,1,0,1,0,0-2Z" transform="translate(-97.934 -376.667)"/>
      <path d="M70.267,426.667h-1a1,1,0,0,0,0,2h1a1,1,0,0,0,0-2Z" transform="translate(-60.267 -376.667)"/>
      <path d="M137.534,40.134h26a1,1,0,0,0,1-1v-4a1,1,0,0,0-1-1h-26a1,1,0,0,0-1,1v4A1,1,0,0,0,137.534,40.134Zm1-4h24v2h-24Z" transform="translate(-120.534 -30.134)"/>
      <path d="M163.534,104.4a1,1,0,1,0,0-2h-26a1,1,0,1,0,0,2Z" transform="translate(-120.534 -90.401)"/>
    </g>
  </g>
</svg>
