<svg style="fill: #3e4049;" id="target" xmlns="http://www.w3.org/2000/svg" viewBox="0 0 60 60">
  <g>
    <g>
      <path d="M1,0A1,1,0,0,0,0,1V12H2V2H12V0Z"/>
    </g>
  </g>
  <g transform="translate(48)">
    <g>
      <path d="M395,0H384V2h10V12h2V1A1,1,0,0,0,395,0Z" transform="translate(-384)"/>
    </g>
  </g>
  <g transform="translate(0 48)">
    <g>
      <path d="M2,394V384H0v11a1,1,0,0,0,1,1H12v-2Z" transform="translate(0 -384)"/>
    </g>
  </g>
  <g transform="translate(48 48)">
    <g>
      <path d="M394,384v10H384v2h11a1,1,0,0,0,1-1V384Z" transform="translate(-384 -384)"/>
    </g>
  </g>
  <g>
    <g>
      <path d="M57.975,29A28.026,28.026,0,0,0,31,2.025V0H29V2.025A28.026,28.026,0,0,0,2.025,29H0v2H2.025A28.026,28.026,0,0,0,29,57.975V60h2V57.975A28.026,28.026,0,0,0,57.975,31H60V29H57.975ZM8.783,45A26.044,26.044,0,0,1,7,42.1V38.3A3.3,3.3,0,0,1,10.3,35h2.223l-1.451,3.628a1,1,0,0,0,.222,1.079l2,2a1,1,0,0,0,1.414,0l2-2a1,1,0,0,0,.222-1.079L15.477,35H17.7A3.3,3.3,0,0,1,21,38.3V45Zm6.6-18.606,3.574,2.145C18.552,30.987,15.535,33,14,33a6.3,6.3,0,0,1-4.861-4.052C10.851,28.807,13.942,28.288,15.379,26.394Zm-6.324.548C9.323,23.591,10.9,22,14,22c2.838,0,4.4,1.342,4.847,4.142l-3.332-2a1,1,0,0,0-1.463.541C13.546,26.2,10.814,26.775,9.055,26.942Zm5.771,11.817L14,39.586l-.826-.827L14,36.692ZM31,55.975V54H29v1.975A25.944,25.944,0,0,1,10.353,47H22a1,1,0,0,0,1-1V41H37v5a1,1,0,0,0,1,1H49.647A25.944,25.944,0,0,1,31,55.975Zm.379-35.581,3.574,2.145C34.552,24.987,31.535,27,30,27a6.3,6.3,0,0,1-4.861-4.052C26.851,22.807,29.942,22.288,31.379,20.394Zm-6.324.548C25.323,17.591,26.9,16,30,16c2.838,0,4.4,1.342,4.847,4.142l-3.332-2a1,1,0,0,0-1.463.541C29.546,20.2,26.814,20.775,25.055,20.942Zm5.771,11.817L30,33.586l-.826-.827L30,30.692ZM28.523,29l-1.451,3.628a1,1,0,0,0,.222,1.079l2,2a1,1,0,0,0,1.414,0l2-2a1,1,0,0,0,.222-1.079L31.477,29H33.7A3.3,3.3,0,0,1,37,32.3V39H23V32.3A3.3,3.3,0,0,1,26.3,29ZM53,42.1A26.044,26.044,0,0,1,51.217,45H39V38.3A3.3,3.3,0,0,1,42.3,35h2.223l-1.451,3.628a1,1,0,0,0,.222,1.079l2,2a1,1,0,0,0,1.414,0l2-2a1,1,0,0,0,.222-1.079L47.477,35H49.7A3.3,3.3,0,0,1,53,38.3ZM47.379,26.394l3.574,2.145C50.552,30.987,47.535,33,46,33a6.3,6.3,0,0,1-4.861-4.052C42.851,28.807,45.942,28.288,47.379,26.394Zm-6.324.548C41.323,23.591,42.9,22,46,22c2.838,0,4.4,1.342,4.847,4.142l-3.332-2a1,1,0,0,0-1.463.541C45.546,26.2,42.814,26.775,41.055,26.942Zm5.771,11.817L46,39.586l-.826-.827L46,36.692ZM55.975,31a25.868,25.868,0,0,1-1.058,6.416,5.262,5.262,0,0,0-4.554-4.367A6.942,6.942,0,0,0,53,28c0-6.612-3.807-8-7-8s-7,1.388-7,8a6.942,6.942,0,0,0,2.637,5.049,5.282,5.282,0,0,0-2.276.842c-.127.085-.243.18-.361.275V32.3a5.283,5.283,0,0,0-4.637-5.254A6.942,6.942,0,0,0,37,22c0-6.612-3.807-8-7-8s-7,1.388-7,8a6.942,6.942,0,0,0,2.637,5.049A5.283,5.283,0,0,0,21,32.3v1.862c-.118-.094-.234-.19-.361-.275a5.281,5.281,0,0,0-2.276-.842A6.942,6.942,0,0,0,21,28c0-6.612-3.807-8-7-8s-7,1.388-7,8a6.942,6.942,0,0,0,2.637,5.049,5.262,5.262,0,0,0-4.554,4.367A25.868,25.868,0,0,1,4.025,31H6V29H4.025A26.026,26.026,0,0,1,29,4.025V6h2V4.025A26.026,26.026,0,0,1,55.975,29H54v2Z"/>
    </g>
  </g>
</svg>
