<svg id="youtube-logo" xmlns="http://www.w3.org/2000/svg" viewBox="0 0 16.54 20">
  <g transform="translate(0)">
    <path d="M336.6,53.152v4.4a2.861,2.861,0,0,0,.089.837.62.62,0,0,0,.658.413,1.6,1.6,0,0,0,1.149-.692v.614h1.016V53.152H338.5V57.4q-.335.481-.636.48c-.134,0-.212-.082-.234-.245a2.9,2.9,0,0,1-.011-.391v-4.1Z" transform="translate(-326.247 -51.243)"/>
    <path d="M232.1,57a1.373,1.373,0,0,0,1.183-.569,2.2,2.2,0,0,0,.313-1.317V53.16a2.176,2.176,0,0,0-.312-1.306,1.5,1.5,0,0,0-2.355,0,2.177,2.177,0,0,0-.313,1.306v1.953a2.23,2.23,0,0,0,.313,1.317A1.38,1.38,0,0,0,232.1,57Zm-.48-4.04q0-.77.48-.77t.48.77V55.3q0,.782-.48.781t-.48-.781Z" transform="translate(-224.066 -49.443)"/>
    <path d="M124.98,7.478V4.453L126.331,0h-1.138l-.759,2.935L123.641,0h-1.183q.313.938.725,2.087a18.967,18.967,0,0,1,.681,2.366V7.477h1.116Z" transform="translate(-119.791)"/>
    <path d="M63.788,236.956a2.047,2.047,0,0,0-1.144-.525q-2.054-.223-6.194-.223t-6.183.223a2.027,2.027,0,0,0-1.15.525,2.122,2.122,0,0,0-.647,1.105,19.325,19.325,0,0,0-.29,3.906,18.946,18.946,0,0,0,.29,3.906,2.04,2.04,0,0,0,.642,1.1,1.978,1.978,0,0,0,1.144.514,59.757,59.757,0,0,0,6.194.234,59.754,59.754,0,0,0,6.194-.234,1.953,1.953,0,0,0,1.138-.514,2.124,2.124,0,0,0,.647-1.1,19.344,19.344,0,0,0,.29-3.906,18.945,18.945,0,0,0-.29-3.906A2.044,2.044,0,0,0,63.788,236.956ZM52.9,239.188H51.707v6.351H50.591v-6.351H49.419v-1.049H52.9v1.049Zm3.013,6.351h-.993v-.6a1.635,1.635,0,0,1-1.138.681.6.6,0,0,1-.647-.413,2.758,2.758,0,0,1-.089-.815v-4.364h.993v4.063a3.091,3.091,0,0,0,.011.391q.034.234.234.234.3,0,.636-.469v-4.219h.993v5.514Zm3.795-1.652a4.1,4.1,0,0,1-.1,1.116.773.773,0,0,1-.792.614A1.385,1.385,0,0,1,57.778,245v.536h-.993v-7.4h.993v2.422a1.344,1.344,0,0,1,1.038-.6.775.775,0,0,1,.792.625,3.97,3.97,0,0,1,.1,1.105Zm3.772-.915h-2v.971q0,.77.513.77a.427.427,0,0,0,.446-.4,5.557,5.557,0,0,0,.022-.681h1.016v.145a4.885,4.885,0,0,1-.022.647,1.381,1.381,0,0,1-1.44,1.194,1.432,1.432,0,0,1-1.205-.569,2.094,2.094,0,0,1-.324-1.294v-1.931a2.155,2.155,0,0,1,.313-1.295,1.526,1.526,0,0,1,2.377,0,2.217,2.217,0,0,1,.3,1.295v1.15Z" transform="translate(-48.18 -227.726)"/>
    <path d="M419.157,365.811q-.5,0-.5.759v.514h1v-.514Q419.659,365.811,419.157,365.811Z" transform="translate(-405.352 -352.675)"/>
    <path d="M315.973,365.811a.715.715,0,0,0-.5.246v3.359a.715.715,0,0,0,.5.245q.435,0,.435-.748v-2.355Q316.408,365.811,315.973,365.811Z" transform="translate(-305.873 -352.675)"/>
  </g>
</svg>
